<?xml version="1.0" encoding="UTF-8" standalone="no"?>
<svg width="800px" height="500px" viewBox="0 0 800 500" xmlns="http://www.w3.org/2000/svg">
  <!-- Main container -->
  <rect x="100" y="50" width="600" height="400" rx="10" ry="10" fill="#f5f5f5" stroke="#333" stroke-width="2"/>
  
  <!-- Title -->
  <text x="400" y="30" font-family="Arial" font-size="24" font-weight="bold" text-anchor="middle">MesChain-Sync Architecture</text>
  
  <!-- OpenCart Core -->
  <rect x="250" y="70" width="300" height="60" rx="5" ry="5" fill="#4a86e8" stroke="#333" stroke-width="2"/>
  <text x="400" y="105" font-family="Arial" font-size="16" font-weight="bold" fill="white" text-anchor="middle">OpenCart Admin Panel</text>
  
  <!-- MesChain Core -->
  <rect x="250" y="150" width="300" height="60" rx="5" ry="5" fill="#6aa84f" stroke="#333" stroke-width="2"/>
  <text x="400" y="185" font-family="Arial" font-size="16" font-weight="bold" fill="white" text-anchor="middle">MesChain-Sync Core</text>
  
  <!-- Marketplace Modules -->
  <rect x="150" y="250" width="140" height="60" rx="5" ry="5" fill="#e69138" stroke="#333" stroke-width="2"/>
  <text x="220" y="285" font-family="Arial" font-size="16" font-weight="bold" fill="white" text-anchor="middle">N11</text>
  
  <rect x="330" y="250" width="140" height="60" rx="5" ry="5" fill="#e69138" stroke="#333" stroke-width="2"/>
  <text x="400" y="285" font-family="Arial" font-size="16" font-weight="bold" fill="white" text-anchor="middle">Trendyol</text>
  
  <rect x="510" y="250" width="140" height="60" rx="5" ry="5" fill="#e69138" stroke="#333" stroke-width="2"/>
  <text x="580" y="285" font-family="Arial" font-size="16" font-weight="bold" fill="white" text-anchor="middle">Amazon</text>
  
  <!-- Support Modules -->
  <rect x="150" y="350" width="140" height="60" rx="5" ry="5" fill="#9fc5e8" stroke="#333" stroke-width="2"/>
  <text x="220" y="385" font-family="Arial" font-size="16" font-weight="bold" fill="white" text-anchor="middle">User Settings</text>
  
  <rect x="330" y="350" width="140" height="60" rx="5" ry="5" fill="#9fc5e8" stroke="#333" stroke-width="2"/>
  <text x="400" y="385" font-family="Arial" font-size="16" font-weight="bold" fill="white" text-anchor="middle">Help System</text>
  
  <rect x="510" y="350" width="140" height="60" rx="5" ry="5" fill="#9fc5e8" stroke="#333" stroke-width="2"/>
  <text x="580" y="385" font-family="Arial" font-size="16" font-weight="bold" fill="white" text-anchor="middle">Logs & Debug</text>
  
  <!-- Connector lines -->
  <!-- OpenCart to MesChain Core -->
  <line x1="400" y1="130" x2="400" y2="150" stroke="#333" stroke-width="2"/>
  
  <!-- MesChain Core to Marketplaces -->
  <line x1="400" y1="210" x2="400" y2="230" stroke="#333" stroke-width="2"/>
  <line x1="400" y1="230" x2="220" y2="230" stroke="#333" stroke-width="2"/>
  <line x1="400" y1="230" x2="580" y2="230" stroke="#333" stroke-width="2"/>
  <line x1="220" y1="230" x2="220" y2="250" stroke="#333" stroke-width="2"/>
  <line x1="400" y1="230" x2="400" y2="250" stroke="#333" stroke-width="2"/>
  <line x1="580" y1="230" x2="580" y2="250" stroke="#333" stroke-width="2"/>
  
  <!-- Marketplace to Support modules -->
  <line x1="220" y1="310" x2="220" y2="350" stroke="#333" stroke-width="2"/>
  <line x1="400" y1="310" x2="400" y2="350" stroke="#333" stroke-width="2"/>
  <line x1="580" y1="310" x2="580" y2="350" stroke="#333" stroke-width="2"/>
  
  <!-- Legend -->
  <rect x="620" y="430" width="20" height="10" fill="#4a86e8" stroke="#333" stroke-width="1"/>
  <text x="645" y="440" font-family="Arial" font-size="12" text-anchor="start">OpenCart</text>
  
  <rect x="620" y="450" width="20" height="10" fill="#6aa84f" stroke="#333" stroke-width="1"/>
  <text x="645" y="460" font-family="Arial" font-size="12" text-anchor="start">MesChain Core</text>
  
  <rect x="620" y="470" width="20" height="10" fill="#e69138" stroke="#333" stroke-width="1"/>
  <text x="645" y="480" font-family="Arial" font-size="12" text-anchor="start">Marketplace Modules</text>
  
  <rect x="620" y="490" width="20" height="10" fill="#9fc5e8" stroke="#333" stroke-width="1"/>
  <text x="645" y="500" font-family="Arial" font-size="12" text-anchor="start">Support Modules</text>
</svg> 